<svg xmlns="http://www.w3.org/2000/svg" id="Layer_1" data-name="Layer 1" viewBox="0 0 83.56 49.28"><defs><style>      .cls-1 {        fill: white;      }    </style></defs><path class="cls-1" d="M59.89,34.59h.07c.24-.34.54-.68.91-1.01.37-.33.78-.62,1.25-.87.47-.25.99-.46,1.55-.61.57-.16,1.17-.23,1.8-.23s1.19.07,1.76.2c.56.14,1.08.35,1.55.64.47.29.88.67,1.24,1.13.36.47.64,1.02.85,1.65.12.36.19.74.23,1.16.04.41.06.9.06,1.45v10.76h-4.06v-10.14c0-.44-.02-.82-.05-1.14-.04-.32-.09-.6-.19-.84-.2-.53-.51-.9-.93-1.13-.42-.23-.92-.34-1.51-.34-.79,0-1.54.19-2.27.56-.72.37-1.36.91-1.92,1.62v11.42h-4.06v-16.57h3.36l.37,2.3ZM48.21,35.02c-.51,0-.97.09-1.37.28-.4.19-.74.44-1.03.77-.29.33-.52.71-.69,1.14-.18.43-.29.89-.34,1.38h6.52c0-.49-.06-.95-.2-1.38-.13-.43-.32-.81-.58-1.14-.26-.33-.58-.58-.96-.77-.39-.19-.83-.28-1.34-.28ZM49.84,46.02c.79,0,1.61-.08,2.46-.23.86-.16,1.72-.39,2.6-.68v3.22c-.52.23-1.33.44-2.41.65-1.08.2-2.21.3-3.37.3s-2.29-.15-3.35-.46c-1.05-.3-1.97-.79-2.77-1.46-.79-.67-1.41-1.55-1.88-2.62-.46-1.07-.7-2.37-.7-3.9s.22-2.82.65-3.95c.43-1.13,1.02-2.06,1.75-2.8.73-.74,1.56-1.3,2.51-1.67.94-.37,1.92-.55,2.92-.55s2.02.16,2.91.48c.88.32,1.65.82,2.3,1.5.65.68,1.15,1.56,1.51,2.63.36,1.08.54,2.35.54,3.82-.01.57-.03,1.05-.05,1.45h-10.87c.06.77.23,1.42.51,1.97.29.54.65.99,1.12,1.33.46.34,1,.59,1.61.74.62.16,1.28.23,2,.23ZM33.49,43.1l-4.28,5.76h-4.65l6.55-8.45-6.15-8.12h4.77l3.87,5.47,3.94-5.47h4.79l-6.33,8.11,6.51,8.47h-4.74l-4.26-5.76ZM21.07,32.29h4.06v16.57h-4.06v-16.57ZM72.28,45.23c.2-3.55.23-6.62.92-10.03,2.64-13.1,10.35-13.09,10.36-22.3,0-7.81-7.18-14.47-15.62-12.57-3.99.9-6.64,3.29-8.29,6.04-.89,1.49-1.58,3.42-1.73,5.47-.12,1.68.2,4.97,1.03,6.06l.88-1.5,1.95.69-.24,1.46c0,.7-.07.19.12.42.39.36.98-.52,1.84-.7.22.48.9,1.09,1.19,1.53-.28.76-1.89,1.65-.52,1.82h1.4s.31,2.09.31,2.09l-1.15.44c.14.17.04.08.28.22,2.55,1.47,6.15,1.73,8.96.78.58-.2.61-.6.92-1.11,1.03-1.7,3.45-3.79,5.3-4.77-.26.31-.82.77-1.14,1.07-5.66,5.2-7.21,13.49-7,21,.03,1.18.27,2.9.24,3.89ZM69.79,8.21c3.03-.76,5.46,1.48,5.97,3.81.66,2.99-1.42,5.48-3.85,5.99-4.61.96-7.73-4.17-5.15-7.81.72-1.02,1.59-1.63,3.02-1.99ZM49.19,26.57h.44l.84,2.12h.02l.86-2.12h.44l-1.67,4.02h-.44l.58-1.37-1.06-2.64ZM49.06,26.93h-.03c-.1,0-.21,0-.31.03-.1.02-.2.05-.28.09-.09.04-.17.09-.24.14-.07.06-.13.12-.18.2v1.88h-.44v-2.7h.34l.09.43h0c.04-.07.1-.13.16-.19.06-.06.13-.11.21-.16.08-.05.17-.08.26-.11.1-.03.19-.04.3-.04.02,0,.04,0,.06,0,.02,0,.04,0,.05,0v.42ZM46.89,27.92c0,.21-.03.41-.09.58-.06.17-.15.32-.26.45-.11.12-.25.22-.4.29-.16.07-.33.1-.53.1s-.38-.03-.54-.1c-.16-.07-.29-.16-.4-.29-.11-.12-.19-.27-.25-.45-.06-.17-.09-.37-.09-.58s.03-.41.09-.58c.06-.17.15-.32.26-.45.11-.13.25-.22.4-.29.16-.07.34-.1.53-.1s.38.03.54.1c.16.07.29.16.4.29.11.13.19.27.25.45.06.17.09.37.09.58ZM46.43,27.92c0-.17-.02-.32-.06-.44-.04-.13-.1-.24-.17-.33-.07-.09-.16-.16-.26-.2-.1-.05-.21-.07-.33-.07s-.23.02-.33.07c-.1.05-.19.11-.26.2-.07.09-.13.2-.17.33-.04.13-.06.28-.06.44s.02.31.06.44c.04.13.1.24.17.33.07.09.16.16.26.2.1.05.21.07.33.07s.23-.02.33-.07c.1-.05.19-.11.26-.2.07-.09.13-.2.17-.33.04-.13.06-.28.06-.44ZM43.89,29.27s-.1.03-.17.04c-.08.01-.17.02-.28.02-.14,0-.26-.02-.37-.05-.1-.03-.19-.09-.26-.15-.07-.07-.12-.14-.15-.24-.03-.09-.05-.2-.05-.31v-1.64h-.52v-.38h.52v-.74h.44v.74h.81v.38h-.81v1.57c0,.06,0,.12.03.17.02.05.05.1.09.14.04.04.09.07.15.09.06.02.13.03.22.03.06,0,.12,0,.19-.01.06,0,.13-.02.18-.04v.37ZM41.06,26.5c.13,0,.26.01.37.04.12.03.22.07.31.11v.36c-.12-.04-.23-.08-.33-.1-.1-.02-.2-.03-.31-.03-.11,0-.22.02-.33.05-.11.04-.2.1-.29.18-.09.08-.15.19-.21.33-.05.14-.08.3-.08.5,0,.15.02.28.06.4.04.12.1.23.17.32.08.09.17.16.29.21.12.05.25.08.4.08.11,0,.22-.01.33-.03.11-.02.22-.06.33-.1v.36s-.07.04-.13.06c-.05.02-.11.03-.17.05-.06.01-.13.03-.2.03-.07,0-.14.01-.21.01-.18,0-.35-.03-.52-.08-.16-.05-.3-.14-.42-.25-.12-.11-.22-.26-.29-.43-.07-.17-.1-.38-.1-.62,0-.18.02-.34.06-.48.04-.14.09-.27.15-.37.06-.11.14-.2.23-.28.09-.08.18-.14.28-.19.1-.05.2-.08.3-.1.1-.02.21-.03.3-.03ZM38.62,28.08c-.08-.02-.18-.04-.29-.07-.11-.02-.23-.03-.37-.03-.19,0-.33.04-.44.12-.11.08-.16.2-.16.37,0,.08.01.16.04.22.03.06.06.11.11.16.05.04.1.07.16.09.06.02.13.03.2.03.09,0,.18-.01.26-.04.08-.03.15-.06.22-.1.06-.04.12-.08.16-.11.05-.04.08-.07.1-.09v-.54ZM38.64,28.97h-.01s-.08.09-.14.14c-.06.04-.12.08-.19.12-.07.04-.15.06-.24.08-.08.02-.18.03-.27.03-.13,0-.25-.02-.36-.06-.11-.04-.2-.1-.28-.17-.08-.07-.14-.17-.18-.27-.04-.11-.07-.23-.07-.37s.02-.26.07-.36c.05-.11.12-.2.2-.27.09-.07.19-.13.31-.17.12-.04.26-.06.41-.06.14,0,.27.01.39.04.12.02.23.05.32.09h.01v-.19c0-.07,0-.14-.01-.2,0-.06-.03-.11-.05-.15-.05-.09-.13-.17-.24-.23-.11-.06-.25-.09-.44-.09-.14,0-.26.01-.38.04-.12.03-.24.06-.36.1v-.37s.1-.04.16-.06c.06-.02.13-.04.2-.05.07-.01.14-.03.22-.03.08,0,.15-.01.23-.01.27,0,.5.05.67.14.17.1.3.22.38.38.03.06.05.13.06.2.01.07.02.15.02.24v1.8h-.37l-.05-.3ZM36.78,25.5c-.06-.01-.12-.02-.19-.03-.07,0-.13,0-.18,0-.1,0-.19.01-.26.04-.08.02-.14.06-.2.12-.05.05-.09.13-.12.21-.03.09-.04.19-.04.32v.41h.8v.38h-.8v2.32h-.44v-2.32h-.47v-.38h.47v-.41c0-.19.03-.36.08-.49.05-.13.12-.24.21-.33.09-.09.2-.15.32-.19.12-.04.25-.06.4-.06.09,0,.17,0,.25.01.08,0,.13.02.17.03v.37ZM33.58,26.93h-.03c-.1,0-.21,0-.31.03-.1.02-.19.05-.28.09-.09.04-.17.09-.24.14-.07.06-.13.12-.18.2v1.88h-.44v-2.7h.34l.09.43h0c.04-.07.1-.13.16-.19.06-.06.13-.11.21-.16.08-.05.17-.08.26-.11.09-.03.19-.04.3-.04.02,0,.04,0,.06,0,.02,0,.04,0,.05,0v.42ZM30.48,28.96c.15,0,.28-.01.4-.03.12-.02.24-.06.36-.1v.36c-.1.05-.22.08-.36.11-.14.03-.29.04-.46.04-.19,0-.37-.02-.54-.07-.17-.05-.32-.13-.44-.24-.12-.11-.22-.25-.29-.43-.07-.18-.1-.39-.1-.64s.03-.46.1-.64c.07-.18.16-.33.27-.45.11-.12.24-.21.39-.27.15-.06.3-.09.46-.09.15,0,.29.03.42.08.13.05.25.13.34.24.1.11.17.25.23.42.05.17.08.38.08.61v.06s0,.05,0,.11h-1.87c0,.17.03.32.08.44.05.12.12.22.21.29.09.07.2.13.32.16.12.03.25.05.39.05ZM30.25,26.88c-.1,0-.2.02-.29.06-.09.04-.16.09-.23.16-.06.07-.12.15-.16.24-.04.09-.06.19-.07.29h1.38c0-.11-.01-.21-.04-.3-.03-.09-.07-.17-.12-.24-.05-.07-.12-.12-.2-.16-.08-.04-.17-.06-.27-.06ZM28.5,27.89c0,.19-.02.35-.06.5-.04.14-.09.27-.15.38-.06.11-.13.2-.21.27-.08.07-.17.13-.25.18-.09.04-.18.08-.27.1-.09.02-.18.03-.26.03-.17,0-.31-.03-.43-.08-.12-.05-.23-.13-.33-.24h0v1.57h-.43v-4.02h.33l.09.31h0s.06-.07.1-.11c.04-.04.09-.07.16-.11.07-.04.14-.08.24-.11.09-.03.19-.05.3-.05.15,0,.3.03.44.08.14.05.27.13.37.24.11.11.2.25.26.43.07.18.1.39.1.64ZM28.04,27.9c0-.16-.02-.3-.05-.42-.03-.12-.08-.23-.15-.32-.07-.09-.15-.16-.25-.2-.1-.05-.21-.07-.34-.07-.09,0-.17.01-.25.04-.07.02-.14.06-.2.09-.06.04-.11.08-.16.12-.04.04-.08.08-.11.12v1.41c.09.09.2.17.32.23.12.06.25.08.38.08.08,0,.17-.02.27-.05.09-.03.18-.09.26-.17.08-.08.14-.19.2-.33.05-.14.08-.31.08-.53ZM24.82,28.08c-.08-.02-.18-.04-.29-.07-.11-.02-.23-.03-.37-.03-.19,0-.33.04-.44.12-.11.08-.16.2-.16.37,0,.08.01.16.04.22.03.06.06.11.11.16.05.04.1.07.16.09.06.02.13.03.2.03.09,0,.18-.01.26-.04.08-.03.15-.06.22-.1.06-.04.12-.08.16-.11.04-.04.08-.07.1-.09v-.54ZM24.85,28.97h-.01s-.08.09-.14.14c-.06.04-.12.08-.19.12-.07.04-.15.06-.24.08-.09.02-.18.03-.27.03-.13,0-.25-.02-.36-.06-.11-.04-.2-.1-.28-.17-.08-.07-.14-.17-.18-.27-.04-.11-.07-.23-.07-.37s.02-.26.07-.36c.05-.11.12-.2.2-.27.09-.07.19-.13.31-.17.12-.04.26-.06.41-.06.14,0,.27.01.39.04.12.02.23.05.32.09h.01v-.19c0-.07,0-.14-.01-.2,0-.06-.03-.11-.05-.15-.05-.09-.13-.17-.24-.23-.11-.06-.25-.09-.44-.09-.14,0-.26.01-.38.04-.12.03-.24.06-.36.1v-.37s.1-.04.16-.06c.06-.02.13-.04.2-.05.07-.01.14-.03.22-.03.08,0,.15-.01.23-.01.27,0,.5.05.67.14.17.1.3.22.38.38.03.06.05.13.06.2.01.07.02.15.02.24v1.8h-.37l-.05-.3ZM22.57,27.89c0,.19-.02.35-.06.5-.04.14-.09.27-.15.38-.06.11-.13.2-.21.27-.08.07-.17.13-.25.18-.09.04-.18.08-.27.1-.09.02-.18.03-.26.03-.17,0-.31-.03-.43-.08-.12-.05-.23-.13-.33-.24h0v1.57h-.43v-4.02h.33l.09.31h0s.06-.07.1-.11c.04-.04.09-.07.16-.11.07-.04.14-.08.24-.11.09-.03.19-.05.3-.05.15,0,.3.03.44.08.14.05.27.13.37.24.11.11.2.25.26.43.06.18.1.39.1.64ZM22.11,27.9c0-.16-.02-.3-.05-.42-.03-.12-.08-.23-.15-.32-.07-.09-.15-.16-.25-.2-.1-.05-.21-.07-.34-.07-.09,0-.17.01-.25.04-.07.02-.14.06-.2.09-.06.04-.11.08-.16.12-.04.04-.08.08-.11.12v1.41c.09.09.2.17.32.23.12.06.25.08.38.08.08,0,.17-.02.27-.05.09-.03.18-.09.26-.17.08-.08.14-.19.2-.33.05-.14.08-.31.08-.53ZM56.31,17.05l.02,1.73-.97.39c-.52-.26-.82-.73-1.28-1.01-.41.15-.65.47-.94.67l.85,1.58-.62.79-1.73-.24c-.16.42-.32.72-.36,1.21l1.39.73-.06,1.16c-.44.09-1.29.35-1.59.62l.2,1.11,1.68.02.46.99c-.37.48-.67.79-1.03,1.28l.64.89c.49-.11,1.12-.5,1.49-.8.37.15.63.37.95.64l-.26,1.59c.27.26.8.39,1.19.46l.77-1.46,1.06.09c.31.5.35,1.14.68,1.58l1.13-.18v-1.66s.98-.48.98-.48c.53.35.79.7,1.28,1.02.37-.14.72-.46.92-.75-.2-.46-.54-.96-.78-1.38l.58-.94,1.76.28.33-1.13-1.43-.84c0-1.8.49-.99,1.64-1.72l-.16-1.16c-1.75,0-1.65.29-2.14-.96.32-.53.72-.88,1.05-1.37-.22-.26-.51-.53-.68-.85-.61.15-.98.65-1.61.77l-.81-.56.26-1.69-1.12-.42-.85,1.47c-1.94-.06-.89-.55-1.73-1.66l-1.17.19ZM57.12,19.91c5.43-1.46,7.45,6.74,2.14,8.14-5.34,1.41-7.68-6.66-2.14-8.14ZM15.24,40.1h-5.13v-3.5h9.34v11.55c-.34.13-.78.26-1.31.4-.53.13-1.12.26-1.78.37-.65.11-1.33.2-2.03.26-.7.07-1.38.11-2.07.11-2.06,0-3.85-.27-5.38-.83-1.54-.55-2.81-1.33-3.83-2.34-1.02-1-1.79-2.2-2.3-3.59-.51-1.39-.76-2.92-.76-4.6,0-1.19.13-2.32.4-3.4.27-1.08.67-2.08,1.19-3,.52-.92,1.16-1.75,1.9-2.49.74-.74,1.59-1.38,2.55-1.9.95-.52,1.99-.92,3.13-1.2,1.13-.28,2.35-.42,3.65-.42,1.15,0,2.25.08,3.29.25,1.03.16,1.89.37,2.55.6v3.53c-.89-.27-1.79-.48-2.69-.62-.91-.15-1.82-.22-2.74-.22-1.24,0-2.41.19-3.49.55-1.09.37-2.02.92-2.81,1.65-.79.72-1.42,1.62-1.87,2.68-.46,1.06-.68,2.29-.68,3.68.01,2.7.72,4.74,2.11,6.09,1.4,1.35,3.38,2.03,5.95,2.03.48,0,.98-.02,1.48-.08.51-.05.96-.12,1.35-.2v-5.37Z"></path></svg>